<?xml version="1.0" standalone="no"?>
<!DOCTYPE svg PUBLIC "-//W3C//DTD SVG 20010904//EN"
 "http://www.w3.org/TR/2001/REC-SVG-20010904/DTD/svg10.dtd">
<svg version="1.0" xmlns="http://www.w3.org/2000/svg"
 width="256.000000pt" height="256.000000pt" viewBox="0 0 256.000000 256.000000"
 preserveAspectRatio="xMidYMid meet">

<g transform="translate(0.000000,256.000000) scale(0.100000,-0.100000)"
fill="#000000" stroke="none">
<path d="M19 2543 c-20 -23 -21 -1315 -1 -1335 10 -10 115 -14 489 -16 416 -2
479 -1 499 13 l24 15 0 532 0 532 -138 138 -138 138 -361 0 c-323 0 -362 -2
-374 -17z m671 -186 c0 -75 4 -117 12 -125 8 -8 50 -12 125 -12 l113 0 0 -470
0 -470 -425 0 -425 0 0 595 0 595 300 0 300 0 0 -113z m149 -55 c-63 -5 -69 0
-69 60 l0 52 55 -54 56 -55 -42 -3z"/>
<path d="M193 1953 c-7 -2 -13 -18 -13 -34 0 -21 6 -30 23 -34 12 -3 114 -4
227 -3 l205 3 0 35 0 35 -215 2 c-118 1 -221 -1 -227 -4z"/>
<path d="M742 1948 c-34 -34 -2 -71 59 -66 49 3 71 27 53 56 -14 21 -93 29
-112 10z"/>
<path d="M190 1776 c-6 -8 -10 -25 -8 -38 3 -21 8 -23 58 -23 50 0 55 2 58 23
5 34 -15 52 -58 52 -21 0 -43 -7 -50 -14z"/>
<path d="M402 1778 c-7 -7 -12 -19 -12 -28 0 -37 19 -40 236 -40 178 0 214 2
224 15 10 12 10 21 2 40 l-12 25 -213 0 c-152 0 -216 -3 -225 -12z"/>
<path d="M190 1606 c-6 -8 -10 -25 -8 -38 l3 -23 225 0 225 0 3 23 c7 49 -5
52 -228 52 -169 0 -210 -3 -220 -14z"/>
<path d="M742 1608 c-33 -33 -5 -68 54 -68 52 0 72 20 56 55 -10 21 -19 25
-55 25 -24 0 -48 -5 -55 -12z"/>
<path d="M1337 2332 c-53 -53 -97 -104 -97 -112 0 -23 192 -210 216 -210 23 0
44 18 44 38 0 7 -25 40 -57 73 l-56 59 266 0 266 0 3 -331 c3 -314 4 -331 22
-345 25 -18 31 -18 50 2 14 13 16 61 16 373 0 264 -3 360 -12 369 -9 9 -92 12
-312 12 l-300 0 59 60 c54 55 58 61 47 85 -21 46 -50 33 -155 -73z"/>
<path d="M1562 1354 l-22 -15 0 -650 c0 -429 4 -657 10 -670 10 -18 26 -19
498 -19 366 0 491 3 500 12 9 9 12 144 12 548 l0 536 -138 137 -139 137 -349
0 c-300 0 -353 -2 -372 -16z m658 -184 c0 -149 1 -150 150 -150 l110 0 0 -465
0 -465 -425 0 -425 0 0 595 0 595 295 0 295 0 0 -110z m145 -10 l49 -50 -52 0
-52 0 0 50 c0 28 1 50 3 50 1 0 25 -22 52 -50z"/>
<path d="M1722 928 c-9 -9 -12 -105 -12 -369 0 -312 2 -360 16 -373 23 -23
635 -24 654 -1 9 10 13 110 17 359 5 312 4 347 -11 370 l-16 26 -318 0 c-234
0 -321 -3 -330 -12z m158 -118 l0 -40 -40 0 -40 0 0 40 0 40 40 0 40 0 0 -40z
m430 0 l0 -40 -170 0 -170 0 0 40 0 40 170 0 170 0 0 -40z m-430 -170 l0 -40
-40 0 -40 0 0 40 0 40 40 0 40 0 0 -40z m430 0 l0 -40 -170 0 -170 0 0 40 0
40 170 0 170 0 0 -40z m-430 -170 l0 -40 -40 0 -40 0 0 40 0 40 40 0 40 0 0
-40z m430 0 l0 -40 -170 0 -170 0 0 40 0 40 170 0 170 0 0 -40z m0 -170 l0
-40 -255 0 -255 0 0 40 0 40 255 0 255 0 0 -40z"/>
<path d="M490 1050 c-19 -19 -20 -33 -20 -366 0 -219 4 -352 10 -365 10 -18
24 -19 313 -19 l301 0 -52 -53 c-29 -30 -52 -62 -52 -74 0 -24 23 -46 44 -41
8 2 57 45 110 96 66 64 96 100 96 116 0 15 -30 52 -94 115 -80 78 -99 92 -123
89 -21 -2 -29 -9 -31 -28 -2 -19 10 -37 48 -75 27 -27 50 -53 50 -57 0 -4
-119 -8 -265 -8 l-265 0 0 329 c0 286 -2 332 -16 345 -20 21 -30 20 -54 -4z"/>
</g>
</svg>
