<svg xmlns="http://www.w3.org/2000/svg" width="24" height="19" viewBox="0 0 24 19">
    <g fill="none" fill-rule="evenodd">
        <path fill="#FFF" fill-opacity="0" d="M-39-179h1440V845H-39z"/>
        <path fill="#EEEAE5" fill-opacity="0" d="M-39-179h350V845H-39z"/>
        <g fill="#282828">
            <path d="M21.854 8.685c-.141.108-.25.247-.323.41-.39.859-1.078 1.984-1.335 2.298-.032-.057-2.42-1.77-2.79-2.033a2.6 2.6 0 0 0 .572-.227.465.465 0 0 0-.45-.815c-.105.059-.22.105-.346.14-1.582.445-4.175-.92-4.2-.934a.46.46 0 0 0-.25-.053c-2.355.157-3.701-.065-3.95-.334-.07-.075-.165-.32-.167-.331-.01-.063-.03-.207.424-.338.131-.027.944-.1 1.661-.165 1.631-.146 2.911-.266 3.312-.368.28-.07.52-.145.742-.213.31-.095.577-.177.864-.22.878-.132 2.736.074 2.968.113a.469.469 0 0 0 .401-.082l.525-.408 2.74 3.25-.398.31zm-1.005 5.35c-.28.386-.724.41-1.037.198l-4.23-3.203a.466.466 0 0 0-.563.74l3.497 2.648c-.19.942-.666 1.243-1.116 1.194-.096-.01-3.497-2.691-3.497-2.691a.465.465 0 0 0-.577.73l2.922 2.301c0 .017 0 .033.003.05.022.195-.158.626-.505.885-.49.366-.784.064-1.018-.097.196-.232.31-.524.318-.828a1.344 1.344 0 0 0-.416-1l-.155-.15c-.356-.34-.876-.56-1.427-.362a1.439 1.439 0 0 0-.554-.637 1.47 1.47 0 0 0-1.616.024 1.51 1.51 0 0 0-.405-.612c-.877-.809-1.635-.3-1.968-.11a1.473 1.473 0 0 0-.366-.644 1.523 1.523 0 0 0-2.018-.143l-.885.687c-.583-.504-1.686-2.097-2.055-2.788a1.649 1.649 0 0 0-.444-.52s-.794-.65-.853-.662c.574-.68 3.124-3.635 3.541-4.122l.686.467c.112.077.249.099.377.067.285-.04 2.338-.167 3.414-.075.008.002.043.01.125.05-.855.077-1.118.107-1.23.14-1.114.32-1.147 1.044-1.104 1.357.011.111.074.478.405.839.54.58 2.076.793 4.565.638.43.216 1.901.91 3.345 1.044.034.07 4.93 3.528 4.956 3.548.334.266.122.711-.115 1.036zm-6.88 2.204c-.113.099-1.6 1.404-2.178 1.683-.156.075-.248.034-.344.001-.594-.202-.544-.438-.544-.438l1.743-1.421c.174-.142.308-.317.395-.513a.437.437 0 0 0 .054-.045c.27-.258.482-.265.735-.022l.155.148a.402.402 0 0 1-.016.607zM9.28 17.611c-.086.036-.256.08-.487-.071-.248-.162-.409-.447-.423-.593l3.006-2.324a.551.551 0 0 1 .634-.015.447.447 0 0 1 .047.736L9.28 17.611zm-1.888-1.06c-.292.12-.784-.133-.907-.581 0 0 2.652-2.209 2.807-2.25a.735.735 0 0 1 .549.188c.174.16.284.425.056.683 0 0-2.48 1.925-2.505 1.96zm-2.487-.85a.525.525 0 0 1-.447-.21c-.333-.397-.204-.514-.085-.621.045-.038.406-.324 2.319-1.807a.592.592 0 0 1 .79.067c.168.175.233.473-.061.71-.51.41-2.396 1.857-2.516 1.862zm18.956-6.86L19.173 3.28l2.49-2.487a.466.466 0 0 0-.658-.657l-2.792 2.789a.465.465 0 0 0-.027.627l.727.862-.34.264c-.709-.103-2.305-.215-3.093-.096-.356.054-1.433.386-1.698.452-.276.07-1.294.172-2.288.264a.461.461 0 0 0-.15-.165c-.854-.565-1.152-.658-1.347-.675-.727-.062-2.675-.033-3.5.07l-.467-.319C7.096 2.94 7.203 2.83 7.185 2.632c-.025-.294-.288-.62-2.242-2.087a.466.466 0 0 0-.56.743c.645.483 1.386 1.093 1.682 1.401-.437.584-1.858 2.228-2.93 3.47C1.158 8.447.375 9.354.105 9.796c-.282.46.06.81.39.795a.465.465 0 0 0 .43-.362c.074-.11.228-.303.435-.555.032.082.98.778 1.004.823.193.364 1.303 2.27 2.132 3.094-.694.54-.722.567-.742.585-.275.248-.829.934-.009 1.912.514.612 1.31.692 1.91.32.312.766 1.146 1.246 1.908 1.061.144.329.403.642.722.85.673.437 1.348.209 1.54.048l.354-.289c.206.381.708.647 1.09.762.236.07.4.084.644.024.619-.153 1.325-.747 2.108-1.434.37.25 1.184 1.018 2.281.202a2.3 2.3 0 0 0 .805-1.129c.062.015.309.041.36.041.842 0 1.64-.642 1.87-1.512.731.453 1.692.335 2.265-.451.643-.884.621-1.77-.056-2.308a12.07 12.07 0 0 0-.555-.389c.665-.88 1.379-2.387 1.387-2.405a.154.154 0 0 1 .048-.06l.425-.332.299.353a.465.465 0 1 0 .711-.599z"/>
            <path d="M21.954 2.789a.465.465 0 1 0 .001.93.465.465 0 0 0 0-.93zm0 1.859c-.77 0-1.395-.626-1.395-1.395a1.397 1.397 0 0 1 2.792 0c0 .77-.627 1.395-1.397 1.395zM2.084 3.924a.466.466 0 0 0 .452-.813.465.465 0 1 0-.452.813zM2.988 2.3a1.395 1.395 0 1 1-1.355 2.439 1.395 1.395 0 0 1 1.355-2.44z"/>
        </g>
    </g>
</svg>
