<?xml version="1.0" standalone="no"?>
<!DOCTYPE svg PUBLIC "-//W3C//DTD SVG 20010904//EN"
 "http://www.w3.org/TR/2001/REC-SVG-20010904/DTD/svg10.dtd">
<svg version="1.0" xmlns="http://www.w3.org/2000/svg"
 width="200.000000pt" height="200.000000pt" viewBox="0 0 200.000000 200.000000"
 preserveAspectRatio="xMidYMid meet">

<g transform="translate(0.000000,200.000000) scale(0.100000,-0.100000)"
fill="#000000" stroke="none">
<path d="M780 1989 c-342 -38 -588 -160 -641 -317 -10 -28 -13 -192 -13 -678
l0 -640 28 -58 c62 -126 245 -220 531 -272 141 -25 489 -25 630 0 296 54 490
158 541 293 18 45 19 89 19 688 l0 640 -29 58 c-62 128 -245 222 -526 271
-114 21 -419 29 -540 15z m495 -134 c128 -20 203 -40 294 -82 156 -70 211
-147 167 -232 -70 -135 -366 -225 -736 -225 -426 0 -750 122 -750 281 0 108
195 215 467 257 122 19 433 20 558 1z m-899 -556 c71 -32 204 -70 324 -91 101
-18 499 -18 600 0 178 32 343 88 420 142 l30 21 0 -123 c0 -141 -9 -165 -82
-219 -135 -98 -363 -149 -668 -149 -305 0 -533 51 -668 149 -73 54 -82 78 -82
219 l0 123 30 -21 c16 -12 59 -35 96 -51z m52 -393 c180 -67 320 -89 572 -89
315 0 549 52 695 154 l57 39 -4 -138 c-3 -126 -5 -140 -26 -167 -60 -77 -217
-145 -417 -181 -140 -25 -470 -25 -610 0 -213 38 -384 116 -426 196 -16 29
-19 57 -19 162 l0 127 56 -39 c31 -21 86 -50 122 -64z m-148 -291 c40 -48 204
-113 372 -147 99 -20 143 -23 348 -23 205 0 249 3 348 23 168 34 332 99 372
147 7 8 16 15 21 15 16 0 11 -248 -6 -279 -45 -88 -233 -172 -457 -205 -139
-21 -417 -21 -556 0 -224 33 -412 117 -457 205 -17 31 -22 279 -6 279 5 0 14
-7 21 -15z"/>
<path d="M1533 1180 c-25 -10 -38 -48 -29 -78 4 -11 20 -25 36 -32 25 -10 34
-10 55 4 33 22 35 78 3 100 -25 18 -33 19 -65 6z"/>
<path d="M1516 788 c-9 -12 -16 -29 -16 -38 0 -30 30 -60 60 -60 36 0 60 24
60 60 0 16 -7 36 -16 44 -23 24 -70 20 -88 -6z"/>
<path d="M1533 430 c-25 -10 -38 -48 -29 -78 4 -11 20 -25 36 -32 25 -10 34
-10 55 4 33 22 35 78 3 100 -25 18 -33 19 -65 6z"/>
</g>
</svg>
