<?xml version="1.0" standalone="no"?>
<!DOCTYPE svg PUBLIC "-//W3C//DTD SVG 20010904//EN"
 "http://www.w3.org/TR/2001/REC-SVG-20010904/DTD/svg10.dtd">
<svg version="1.0" xmlns="http://www.w3.org/2000/svg"
 width="256.000000pt" height="256.000000pt" viewBox="0 0 256.000000 256.000000"
 preserveAspectRatio="xMidYMid meet">

<g transform="translate(0.000000,256.000000) scale(0.100000,-0.100000)"
fill="#000000" stroke="none">
<path d="M750 2349 c-278 -116 -514 -219 -525 -230 -19 -19 -20 -35 -23 -335
-2 -240 1 -344 13 -433 64 -497 331 -925 747 -1195 106 -69 283 -156 319 -156
35 0 229 96 327 161 424 285 685 715 742 1224 7 60 10 223 8 407 -3 292 -4
308 -23 327 -25 25 -1025 441 -1057 440 -13 0 -250 -95 -528 -210z m973 -181
l439 -182 -5 -311 c-4 -267 -8 -323 -26 -406 -100 -458 -388 -834 -787 -1030
l-63 -31 -48 23 c-345 165 -637 496 -757 859 -59 178 -68 251 -73 585 l-5 310
433 182 c239 99 438 181 444 182 5 1 207 -81 448 -181z"/>
<path d="M1625 1669 c-11 -6 -118 -108 -237 -227 l-217 -216 -114 111 c-63 62
-126 115 -141 119 -74 18 -140 -49 -121 -123 9 -38 310 -339 348 -348 15 -4
39 -4 54 0 18 4 117 95 272 248 256 255 301 306 301 343 0 75 -81 127 -145 93z"/>
</g>
</svg>
