<svg xmlns="http://www.w3.org/2000/svg" width="20" height="24" viewBox="0 0 20 24">
    <g fill="none" fill-rule="evenodd">
        <path fill="#FFF" fill-opacity="0" d="M-41-121h1440V903H-41z"/>
        <path fill="#EEEAE5" fill-opacity="0" d="M-41-121h350V903H-41z"/>
        <path fill="#FFDC7D" fill-opacity="0" d="M-41-15h350v52H-41z"/>
        <g fill="#282828">
            <path d="M9.584.951a4.48 4.48 0 0 0-4.477 4.472 4.48 4.48 0 0 0 4.477 4.473 4.48 4.48 0 0 0 4.478-4.473A4.48 4.48 0 0 0 9.584.951zm0 9.896a5.433 5.433 0 0 1-5.43-5.424A5.433 5.433 0 0 1 9.585 0a5.433 5.433 0 0 1 5.43 5.423 5.433 5.433 0 0 1-5.43 5.424zM9.585 23.145l-.985-4.11.64-4.316a2.31 2.31 0 0 0 .689 0l.64 4.316-.984 4.11zm0-10.593c.521 0 .943.285.943.636 0 .351-.422.636-.943.636-.521 0-.944-.285-.944-.636 0-.351.423-.636.944-.636zm3.153-.559a.61.61 0 0 0-.594.468l-1.027 4.286-.361-2.334c.444-.285.73-.727.73-1.225 0-.86-.851-1.558-1.901-1.558s-1.901.698-1.901 1.558c0 .498.286.94.73 1.225l-.362 2.334-1.027-4.286a.61.61 0 0 0-.593-.468C1.14 11.993-.001 14.767 0 15.7v7.822a.465.465 0 0 0 .932 0v-7.823c0-.34.656-2.773 5.272-2.773L8.68 23.254a.941.941 0 0 0 .684.707.925.925 0 0 0 1.118-.682l2.483-10.354c4.404 0 5.271 2.243 5.271 2.761v7.834a.465.465 0 0 0 .93 0l.002-7.835c0-.757-.828-3.692-6.431-3.692z"/>
            <path d="M4.212 19.609v3.912a.465.465 0 0 0 .932 0v-3.912h-.932M14.026 19.609v3.912a.465.465 0 0 0 .931 0v-3.912h-.931"/>
        </g>
    </g>
</svg>
