<svg xmlns="http://www.w3.org/2000/svg" width="24" height="20" viewBox="0 0 24 20">
    <g fill="none" fill-rule="evenodd">
        <path fill="#FFF" fill-opacity="0" d="M-39-288h1440V736H-39z"/>
        <path fill="#EEEAE5" fill-opacity="0" d="M-39-288h350V736H-39z"/>
        <g fill="#282828">
            <path d="M23.613 19.165c-2.669 0-4.84-2.261-4.84-5.041V.404A.396.396 0 0 0 18.386 0H.387A.396.396 0 0 0 0 .403v13.721c0 3.225 2.518 5.848 5.614 5.848h17.999c.214 0 .387-.18.387-.403a.395.395 0 0 0-.387-.404zm-17.999 0c-2.669 0-4.84-2.261-4.84-5.041V.806H18v13.318c0 2.145 1.114 4.024 2.771 5.041H5.614z"/>
            <path d="M9.547 4.07c.618 0 1.12-.523 1.12-1.167 0-.643-.502-1.167-1.12-1.167-.617 0-1.12.524-1.12 1.167 0 .644.503 1.167 1.12 1.167zm0-1.528c.19 0 .346.162.346.361 0 .199-.155.36-.346.36a.354.354 0 0 1-.346-.36c0-.199.155-.36.346-.36zM14.535 5H4.548a.396.396 0 0 0-.387.403v1.421c0 .223.173.403.387.403h9.987c.213 0 .387-.18.387-.403V5.403A.396.396 0 0 0 14.535 5zm-9.6 1.42h9.213v-.614H4.935v.615zM4.548 10.41h7.52c.214 0 .387-.18.387-.402V8.586a.396.396 0 0 0-.387-.403h-7.52a.396.396 0 0 0-.387.403v1.422c0 .222.173.403.387.403zm.387-.806h6.746V8.99H4.935v.614zM14.535 11.367H4.548a.395.395 0 0 0-.387.403v1.421c0 .223.173.403.387.403h9.987c.213 0 .387-.18.387-.403V11.77a.395.395 0 0 0-.387-.403zm-9.6 1.42h9.213v-.614H4.935v.615z"/>
        </g>
    </g>
</svg>
