<svg xmlns="http://www.w3.org/2000/svg" width="24" height="22" viewBox="0 0 24 22">
    <g fill="none" fill-rule="evenodd">
        <path fill="#FFF" fill-opacity="0" d="M-39-232h1440V792H-39z"/>
        <path fill="#EEEAE5" fill-opacity="0" d="M-39-232h350V792H-39z"/>
        <path fill="#282828" d="M23.612 16.578h-2.3V3.75c0-1.282-1.028-2.325-2.29-2.325-1.264 0-2.291 1.043-2.291 2.325v1.783c-1.72.303-3.335.806-4.793 1.474l-.809-2.332a2.47 2.47 0 0 0 1.064-1.12c.583-1.234.068-2.719-1.148-3.31A2.394 2.394 0 0 0 9.99 0c-.936 0-1.802.553-2.207 1.41a2.5 2.5 0 0 0-.101 1.897 2.453 2.453 0 0 0 2.305 1.658c.14 0 .276-.013.41-.037l.84 2.42c-.797.407-1.54.867-2.221 1.37L6.973 6.646c.303-.413.482-.924.482-1.477 0-1.369-1.097-2.482-2.446-2.482-1.348 0-2.445 1.113-2.445 2.482 0 1.368 1.097 2.482 2.445 2.482.525 0 1.012-.17 1.41-.456L8.396 9.2a12.713 12.713 0 0 0-1.991 2.045l-1.545-.494a2.502 2.502 0 0 0-.246-1.535 2.435 2.435 0 0 0-2.17-1.336c-.39 0-.78.097-1.129.281C.12 8.794-.347 10.296.276 11.51a2.435 2.435 0 0 0 2.171 1.336c.39 0 .78-.097 1.128-.281a2.45 2.45 0 0 0 1.043-1.066l1.309.418c-.932 1.42-1.484 2.998-1.56 4.66H1.943a.39.39 0 0 0-.387.394v4.61a.39.39 0 0 0 .387.392h21.67a.39.39 0 0 0 .386-.393v-4.61a.39.39 0 0 0-.387-.392zM9.265 4.012A1.708 1.708 0 0 1 8.48 1.75 1.68 1.68 0 0 1 9.99.786c.25 0 .492.056.72.167a1.71 1.71 0 0 1 .785 2.263 1.68 1.68 0 0 1-1.509.963c-.25 0-.493-.056-.72-.167zM3.338 5.17c0-.936.75-1.697 1.671-1.697.922 0 1.672.761 1.672 1.697 0 .935-.75 1.696-1.672 1.696-.921 0-1.671-.76-1.671-1.696zm-.12 6.699c-.242.127-.501.192-.77.192-.627 0-1.196-.35-1.485-.913a1.71 1.71 0 0 1 .71-2.288c.241-.128.5-.192.77-.192.627 0 1.196.35 1.485.913a1.71 1.71 0 0 1-.71 2.288zm14.287-6.456V3.75c0-.849.68-1.539 1.516-1.539s1.516.69 1.516 1.539v1.455h-.007c-.132 0-.264 0-.396.003l-.186.005c-.068.002-.136.003-.203.006-.082.002-.163.006-.244.01l-.14.007c-.093.004-.185.01-.278.016l-.102.007-.3.023-.078.006-.312.03-.065.006-.32.036-.057.007-.321.042c-.008 0-.015.002-.023.003zm-7.913 3.85c2.107-1.522 4.715-2.55 7.555-3.005l.031-.003a21.216 21.216 0 0 1 2.319-.239l.032-.001c.13-.006.26-.01.391-.014.037-.001.073-.003.11-.003.11-.003.22-.004.33-.005l.122-.001h.055v10.587H5.141c.137-2.75 1.705-5.334 4.451-7.317zm13.633 11.926H2.33v-3.824h2.363c.017.002.034.005.052.005a.374.374 0 0 0 .063-.005h18.417v3.824z"/>
    </g>
</svg>
