<svg xmlns="http://www.w3.org/2000/svg" width="30" height="30" viewBox="0 0 30 30">
    <g fill="#282828" fill-rule="evenodd">
        <path d="M15.718 16.819l-3.848-2.25v-4.453c0-.252-.199-.457-.452-.457s-.452.205-.452.457v4.54L7.27 16.82c-.218.128-.292.409-.164.626.13.221.415.29.628.163l3.76-2.199 3.761 2.2c.213.126.498.057.628-.164.128-.217.054-.498-.164-.626M14.656 9.283c-.253 0-.459-.205-.459-.458V7.153c-.12-.174-.767-.53-1.869-.912-.616-.214-.932-.17-1.537 0-1.173.331-1.855.742-2 .912v1.672c0 .253-.206.458-.46.458-.253 0-.458-.205-.458-.458V7.02c-.004-.223-.017-.928 2.668-1.686.787-.222 1.295-.205 2.09.07 1.659.576 2.495 1.18 2.484 1.795v1.626c0 .253-.206.458-.46.458M11.494.902c-.804 0-1.457.652-1.457 1.453s.653 1.453 1.457 1.453c.803 0 1.456-.652 1.456-1.453S12.297.902 11.494.902zm0 3.807c-1.302 0-2.361-1.056-2.361-2.354C9.133 1.056 10.192 0 11.493 0c1.303 0 2.362 1.056 2.362 2.355 0 1.298-1.06 2.354-2.361 2.354zM6.783 23.979c-.253 0-.458-.205-.458-.458V21.85c-.12-.174-.768-.529-1.869-.912-.616-.214-.932-.17-1.538 0-1.172.331-1.854.742-2 .912v1.672c0 .253-.205.458-.459.458-.253 0-.459-.205-.459-.458v-1.804c-.004-.224-.017-.929 2.668-1.687.788-.222 1.296-.205 2.09.07 1.66.576 2.495 1.18 2.484 1.795v1.626c0 .253-.205.458-.459.458M3.621 15.598c-.803 0-1.457.652-1.457 1.453s.654 1.453 1.457 1.453 1.457-.652 1.457-1.453-.654-1.453-1.457-1.453zm0 3.808c-1.302 0-2.36-1.057-2.36-2.355 0-1.299 1.058-2.355 2.36-2.355 1.302 0 2.361 1.056 2.361 2.355 0 1.298-1.059 2.355-2.36 2.355zM22.528 23.979c-.253 0-.459-.205-.459-.458V21.85c-.12-.174-.767-.529-1.868-.912-.616-.214-.932-.17-1.538 0-1.173.331-1.854.742-2 .912v1.672c0 .253-.206.458-.459.458s-.459-.205-.459-.458v-1.804c-.004-.224-.017-.929 2.668-1.687.788-.222 1.296-.205 2.09.07 1.66.576 2.495 1.18 2.484 1.795v1.626c0 .253-.205.458-.459.458M19.366 15.598c-.803 0-1.457.652-1.457 1.453s.654 1.453 1.457 1.453 1.457-.652 1.457-1.453-.654-1.453-1.457-1.453zm0 3.808c-1.302 0-2.361-1.057-2.361-2.355 0-1.299 1.059-2.355 2.36-2.355 1.303 0 2.362 1.056 2.362 2.355 0 1.298-1.06 2.355-2.361 2.355z" transform="translate(4 3)"/>
    </g>
</svg>
