<svg xmlns="http://www.w3.org/2000/svg" width="32" height="32" viewBox="0 0 32 32">
    <g fill="none" fill-rule="evenodd">
        <path fill="#FFF" fill-opacity="0" d="M-35-972h1440V52H-35z"/>
        <path fill="#EEEAE5" fill-opacity="0" d="M-35-972h350V52H-35z"/>
        <g transform="translate(1 1)">
            <rect width="30" height="30" stroke="#282828" rx="2"/>
            <g fill="#282828" fill-rule="nonzero">
                <path d="M24.374 8.047H9.84a.605.605 0 0 0-.603.603v4.402c0 .332.272.603.603.603h14.533a.605.605 0 0 0 .603-.603V8.65a.605.605 0 0 0-.603-.603zm-.603 4.463H10.444V9.253h13.327v3.257zM19.972 16.248H9.842a.605.605 0 0 0-.604.603v4.402c0 .332.272.603.603.603h10.13a.605.605 0 0 0 .604-.603v-4.402a.605.605 0 0 0-.603-.603zm-.663 4.463h-8.865v-3.257h8.865v3.257zM6.645 3a.605.605 0 0 0-.603.603v22.758c0 .331.272.603.603.603a.605.605 0 0 0 .603-.603V3.603A.605.605 0 0 0 6.645 3z"/>
            </g>
        </g>
    </g>
</svg>
