<svg xmlns="http://www.w3.org/2000/svg" width="25" height="26" viewBox="0 0 25 26">
    <g fill="none" fill-rule="evenodd">
        <path fill="#FFF" fill-opacity="0" d="M0 0H1440V1024H0z" transform="translate(-39 -665)"/>
        <path fill="#EEEAE5" fill-opacity="0" d="M0 0H350V1024H0z" transform="translate(-39 -665)"/>
        <g stroke="#282828" stroke-linecap="round" stroke-linejoin="round">
            <path d="M8.214 23.599h0c-.907 0-1.643-.735-1.643-1.642V6.091c0-.906.736-1.641 1.643-1.641.908 0 1.643.735 1.643 1.64v15.867c0 .907-.735 1.642-1.643 1.642zM1.643 17.854h0C.736 17.854 0 17.119 0 16.213v-4.377c0-.907.736-1.642 1.643-1.642s1.643.735 1.643 1.642v4.377c0 .906-.736 1.641-1.643 1.641zM21.357 18.675h0c-.907 0-1.643-.735-1.643-1.642v-6.328c0-.906.736-1.641 1.643-1.641.908 0 1.643.735 1.643 1.641v6.328c0 .907-.735 1.642-1.643 1.642zM14.786 19.769h0c-.908 0-1.643-.735-1.643-1.641V1.64c0-.906.735-1.641 1.643-1.641.907 0 1.643.735 1.643 1.641v16.487c0 .906-.736 1.64-1.643 1.64z" transform="translate(-39 -665) translate(40 666)"/>
        </g>
    </g>
</svg>
