<svg xmlns="http://www.w3.org/2000/svg" width="24" height="24" viewBox="0 0 24 24">
    <g fill="none" fill-rule="evenodd">
        <path fill="#FFF" fill-opacity="0" d="M0 0H1440V1024H0z" transform="translate(-39 -531)"/>
        <path fill="#EEEAE5" fill-opacity="0" d="M0 0H350V1024H0z" transform="translate(-39 -531)"/>
        <g fill="#282828">
            <path d="M5.737 9.9c-.081-.03-.161-.06-.241-.087-.797-.277-1.206-.29-1.99-.07-1.583.447-2.447.928-2.58 1.142v2.273c0 .254-.207.46-.463.46-.255 0-.463-.206-.463-.46v-2.302c-.005-.26-.019-1.077 3.255-2 .713-.2 1.239-.241 1.86-.11.172.405.38.792.622 1.154M4.23 2.645c-1.47 0-2.692 1.247-2.72 2.779-.031 1.564 1.164 2.862 2.666 2.894.247.004.487-.021.743-.092-.102-.304-.18-.616-.234-.893-.157.045-.322.067-.49.063-.99-.02-1.781-.898-1.76-1.954.02-1.033.826-1.874 1.795-1.874.232.006.45.036.705.153.096-.283.211-.564.354-.853-.36-.159-.694-.217-1.059-.223M23.982 10.864v2.294c0 .254-.208.46-.463.46-.256 0-.463-.206-.463-.46v-2.273c-.133-.214-.998-.695-2.58-1.142-.784-.22-1.192-.207-1.99.07-.191.067-.388.14-.581.216-.136.055-.282.04-.4-.026.226-.325.423-.67.59-1.03l.087-.031c.968-.336 1.587-.356 2.545-.086 3.274.923 3.259 1.74 3.255 2.008M19.645 2.645c-.542.01-1.039.15-1.504.473.136.3.251.62.334.911.335-.306.72-.45 1.17-.461.97 0 1.776.84 1.796 1.874.021 1.056-.77 1.933-1.761 1.954-.342.01-.698-.092-1.01-.31-.05.333-.12.634-.215.944.373.192.791.296 1.245.288 1.502-.032 2.697-1.33 2.667-2.894-.03-1.532-1.251-2.78-2.722-2.78M14.917 9.225h-.926v-.546c-.124-.16-.72-.529-1.712-.872-.571-.199-.848-.208-1.408-.05-1.056.298-1.685.622-1.834.779v.689h-.925V8.47c-.004-.238-.016-.89 2.506-1.602.74-.209 1.218-.193 1.965.067 1.56.54 2.345 1.113 2.334 1.702v.587M10.304 3.899c-.082.716.395 1.362 1.063 1.439.681.078 1.277-.447 1.358-1.157.082-.716-.395-1.361-1.063-1.438-.66-.08-1.276.43-1.358 1.156zm.957 2.355c-1.174-.136-2.016-1.239-1.877-2.459.138-1.212 1.187-2.105 2.384-1.969 1.174.136 2.016 1.24 1.877 2.46-.14 1.226-1.206 2.105-2.384 1.968z" transform="translate(-39 -531) translate(39 531)"/>
            <path d="M11.644 23.061c-.418 0-.76-.31-.76-.673l.043-.965 1.46.001.04.944c0 .383-.34.693-.783.693zM6.411 6.15c0-2.882 2.352-5.227 5.246-5.227 2.892 0 5.246 2.345 5.246 5.227 0 2.883-2.354 5.227-5.246 5.227-2.894 0-5.246-2.344-5.246-5.227zm4.566 7.072l.03-.922h1.3l.028.921-1.358.001zm7.006 6.204h-.759c-.171 0-.338.037-.495.109-.626.284-2.388.955-2.959.962-.612.008-5.649 0-5.649 0-.837.083-.723-.77-.251-.777l1.923.004c.255 0 .463-.207.463-.461s-.208-.461-.463-.461H6.37c-.37-.097-.353-.672-.233-.88.03-.004 3.033-.014 3.033-.014.257 0 .464-.206.464-.461s-.207-.46-.464-.46c0 0-3.073.003-3.103.008 0-.002-.003-.002-.006-.004-.291-.184-.555-.936.011-1.146h3.89c.219 0 .456-.22.448-.475-.009-.255-.23-.447-.478-.447h-3.56c-.158-.57.475-.777 1.053-.777l1.987-.001c1.737-.001 3.707-.003 3.878.001h.01c.25 0 .455-.201.461-.452.012-.464-.497-.47-.517-.472V12.1c2.645-.694 4.585-3.099 4.585-5.95C17.829 2.76 15.06 0 11.657 0 8.254 0 5.485 2.759 5.485 6.15c0 2.85 1.938 5.254 4.584 5.947v1.126H7.425c-1.154.001-1.99.603-1.99 1.432 0 .203.021.388.068.554-.769.28-.969 1.494-.208 2.329-.396.805-.08 1.981.936 2.178l.454.001c-.34.795.17 1.702 1.439 1.702 0 0 1.188.003 1.876.003l-.04.946c0 .891.756 1.616 1.709 1.616.929 0 1.685-.725 1.685-1.636l-.04-.926c.211 0 .373 0 .467-.003.866-.011 2.98-.885 3.332-1.046.036-.016.073-.024.111-.024h.759c.255 0 .463-.207.463-.461 0-.255-.208-.462-.463-.462z" transform="translate(-39 -531) translate(39 531)"/>
            <path d="M17.056 15.504c-.204 0-.405-.13-.46-.394-.093-.458-.524-1.972-2.128-2.2-.253-.036-.43-.27-.393-.522.036-.252.271-.426.524-.391 1.879.267 2.575 1.767 2.817 2.58h.703c.27 0 .465.215.469.46.003.254-.201.463-.457.467h-1.075" transform="translate(-39 -531) translate(39 531)"/>
        </g>
    </g>
</svg>
